<svg width="40" height="40" viewBox="0 0 40 40" fill="none" xmlns="http://www.w3.org/2000/svg">
<path d="M18.3333 5H21.6667C22.5871 5 23.3333 5.74619 23.3333 6.66667V7.61464C23.3333 8.32764 23.8119 8.94708 24.4704 9.22047C25.1291 9.49397 25.8961 9.38974 26.4005 8.88538L27.071 8.21485C27.7219 7.56397 28.7771 7.56397 29.428 8.21485L31.785 10.5719C32.4359 11.2227 32.4359 12.278 31.785 12.9289L31.1146 13.5993C30.6102 14.1037 30.506 14.8708 30.7795 15.5296C31.0529 16.1881 31.6724 16.6667 32.3854 16.6667L33.3333 16.6667C34.2538 16.6667 35 17.4129 35 18.3333V21.6667C35 22.5871 34.2538 23.3333 33.3333 23.3333H32.3854C31.6724 23.3333 31.0529 23.8119 30.7795 24.4704C30.506 25.1292 30.6102 25.8962 31.1146 26.4006L31.7851 27.071C32.4359 27.7219 32.4359 28.7772 31.7851 29.4281L29.4281 31.7851C28.7772 32.436 27.7219 32.436 27.071 31.7851L26.4006 31.1146C25.8962 30.6102 25.1292 30.506 24.4704 30.7795C23.8119 31.0529 23.3333 31.6724 23.3333 32.3854V33.3333C23.3333 34.2538 22.5871 35 21.6667 35H18.3333C17.4129 35 16.6667 34.2538 16.6667 33.3333V32.3854C16.6667 31.6724 16.1881 31.0529 15.5296 30.7795C14.8708 30.506 14.1037 30.6102 13.5993 31.1146L12.9289 31.7851C12.278 32.4359 11.2227 32.4359 10.5718 31.7851L8.21482 29.428C7.56395 28.7772 7.56395 27.7219 8.21482 27.071L8.88538 26.4005C9.38974 25.8961 9.49397 25.1291 9.22047 24.4704C8.94708 23.8119 8.32764 23.3333 7.61464 23.3333H6.66667C5.74619 23.3333 5 22.5871 5 21.6667V18.3333C5 17.4129 5.74619 16.6667 6.66667 16.6667L7.61461 16.6667C8.32763 16.6667 8.94708 16.1881 9.22049 15.5296C9.494 14.8708 9.38976 14.1038 8.88539 13.5994L8.21485 12.9289C7.56397 12.278 7.56397 11.2227 8.21485 10.5719L10.5719 8.21485C11.2227 7.56398 12.278 7.56398 12.9289 8.21485L13.5994 8.88539C14.1038 9.38976 14.8708 9.494 15.5296 9.22049C16.1881 8.94708 16.6667 8.32763 16.6667 7.61461V6.66667C16.6667 5.74619 17.4129 5 18.3333 5Z" stroke="#D3D3D3" stroke-width="1.5"/>
<path d="M23.3333 20C23.3333 21.8409 21.8409 23.3333 20 23.3333C18.1591 23.3333 16.6667 21.8409 16.6667 20C16.6667 18.1591 18.1591 16.6667 20 16.6667C21.8409 16.6667 23.3333 18.1591 23.3333 20Z" stroke="#D3D3D3" stroke-width="1.5"/>
</svg>
