<svg width="32" height="32" viewBox="0 0 32 32" fill="none" xmlns="http://www.w3.org/2000/svg">
<g clip-path="url(#clip0_88_36)">
<path d="M7.30218 13.0194C8.50677 9.25151 11.937 6.54545 16 6.54545C18.1841 6.54545 20.1568 7.34545 21.7068 8.65455L26.2159 4C23.4682 1.52727 19.9455 0 16 0C9.89051 0 4.63043 3.59773 2.10165 8.8667L7.30218 13.0194Z" fill="#EA4335"/>
<path d="M21.2193 24.0168C19.8116 24.9551 18.0229 25.4545 16 25.4545C11.9525 25.4545 8.53303 22.7692 7.3161 19.0238L2.09839 23.1133C4.62402 28.3915 9.88396 32 16 32C19.7882 32 23.4082 30.6099 26.1192 27.9994L21.2193 24.0168Z" fill="#34A853"/>
<path d="M26.1192 27.9994C28.9543 25.2695 30.7955 21.2049 30.7955 16C30.7955 15.0545 30.6545 14.0364 30.4432 13.0909H16V19.2727H24.3136C23.9034 21.3515 22.8023 22.9616 21.2193 24.0168L26.1192 27.9994Z" fill="#4A90E2"/>
<path d="M7.3161 19.0238C7.00784 18.0751 6.84091 17.0583 6.84091 16C6.84091 14.9577 7.00281 13.9557 7.30217 13.0194L2.10165 8.8667C1.06393 11.0139 0.5 13.4338 0.5 16C0.5 18.5594 1.07451 20.9736 2.09839 23.1133L7.3161 19.0238Z" fill="#FBBC05"/>
</g>
<defs>
<clipPath id="clip0_88_36">
<rect width="31" height="32" fill="white" transform="translate(0.5)"/>
</clipPath>
</defs>
</svg>
