<svg width="34" height="40" viewBox="0 0 34 40" fill="none" xmlns="http://www.w3.org/2000/svg">
<path d="M32.4461 13.6374C32.211 13.8174 28.0601 16.1256 28.0601 21.2581C28.0601 27.1947 33.3419 29.2949 33.5 29.3469C33.4757 29.4749 32.6609 32.2232 30.7152 35.0235C28.9803 37.4877 27.1683 39.948 24.4119 39.948C21.6555 39.948 20.9461 38.3678 17.7641 38.3678C14.6631 38.3678 13.5606 40 11.0392 40C8.51793 40 6.75869 37.7198 4.73597 34.9195C2.39301 31.6312 0.5 26.5227 0.5 21.6742C0.5 13.8974 5.62369 9.77298 10.6663 9.77298C13.3457 9.77298 15.5792 11.5092 17.2615 11.5092C18.8626 11.5092 21.3596 9.66897 24.4079 9.66897C25.5631 9.66897 29.714 9.77298 32.4461 13.6374ZM22.9608 6.37664C24.2214 4.90049 25.1132 2.85229 25.1132 0.80408C25.1132 0.520052 25.0889 0.232023 25.0362 0C22.9851 0.0760076 20.5448 1.34813 19.0734 3.0323C17.9181 4.32843 16.8399 6.37664 16.8399 8.45285C16.8399 8.76488 16.8926 9.07691 16.9169 9.17692C17.0466 9.20092 17.2574 9.22892 17.4682 9.22892C19.3085 9.22892 21.6231 8.0128 22.9608 6.37664Z" fill="#161616"/>
</svg>
